<svg width="146" height="29" viewBox="0 0 146 29" fill="none" xmlns="http://www.w3.org/2000/svg">
<path d="M9.26562 23.3906C14.9531 23.3906 18.3594 20.6406 18.3594 16.3125V16.2969C18.3594 12.75 16.2344 10.8281 11.5156 9.89062L9.125 9.40625C6.53125 8.89062 5.375 8.0625 5.375 6.64062V6.625C5.375 5.01562 6.82812 3.90625 9.25 3.89062C11.5781 3.89062 13.2031 4.96875 13.4375 6.73438L13.4531 6.92188H17.9062L17.8906 6.625C17.6719 2.67188 14.4688 0.0625 9.25 0.0625C4.25 0.0625 0.65625 2.78125 0.65625 6.90625V6.92188C0.65625 10.3125 2.90625 12.4375 7.35938 13.3281L9.73438 13.7969C12.5312 14.375 13.6406 15.1406 13.6406 16.6719V16.6875C13.6406 18.4062 12 19.5469 9.39062 19.5469C6.8125 19.5469 4.95312 18.4531 4.65625 16.7031L4.625 16.5312H0.171875L0.1875 16.7812C0.453125 20.9375 3.90625 23.3906 9.26562 23.3906ZM20.8594 23H25.4219V12.8906C25.4219 11 26.5938 9.6875 28.3281 9.6875C30.0156 9.6875 31.0312 10.75 31.0312 12.5469V23H35.4219V12.8125C35.4219 10.9531 36.5625 9.6875 38.2969 9.6875C40.0625 9.6875 41.0312 10.75 41.0312 12.6875V23H45.5938V11.5469C45.5938 8.17188 43.3906 5.90625 40.1094 5.90625C37.6562 5.90625 35.6562 7.25 34.9062 9.35938H34.8125C34.25 7.15625 32.5469 5.90625 30.2031 5.90625C27.9531 5.90625 26.2031 7.15625 25.5156 9.0625H25.4219V6.25H20.8594V23ZM53.4688 23.2656C55.6719 23.2656 57.4531 22.2188 58.4062 20.5H58.5V23H63.0625V11.5156C63.0625 8.14062 60.2656 5.90625 55.9375 5.90625C51.5156 5.90625 48.8594 8.125 48.6094 11.2188L48.5938 11.4062H52.7656L52.7969 11.2656C53.0156 10.1875 54.0469 9.39062 55.75 9.39062C57.5312 9.39062 58.5 10.3125 58.5 11.7969V12.8281L54.3594 13.0781C50.2031 13.3438 47.8438 15.125 47.8438 18.1719V18.2031C47.8438 21.1562 50.1094 23.2656 53.4688 23.2656ZM52.3594 17.9688V17.9375C52.3594 16.75 53.2812 16 55.0469 15.8906L58.5 15.6719V16.875C58.5 18.625 57 19.9375 54.9531 19.9375C53.375 19.9375 52.3594 19.2031 52.3594 17.9688ZM66.0156 23H70.5781V13.625C70.5781 11.1875 71.8906 9.84375 74.1406 9.84375C74.7969 9.84375 75.4219 9.9375 75.7969 10.0938V6.07812C75.4531 5.98438 74.9844 5.90625 74.4844 5.90625C72.5312 5.90625 71.1719 7.10938 70.6719 9.17188H70.5781V6.25H66.0156V23ZM84.3281 23.3438C85.2812 23.3438 86.0156 23.25 86.5312 23.1719V19.8281C86.25 19.8594 85.9531 19.9062 85.5469 19.9062C84.1719 19.9062 83.4688 19.375 83.4688 17.8125V9.6875H86.5312V6.25H83.4688V2.15625H78.8594V6.25H76.5312V9.6875H78.8594V18.3125C78.8594 21.9062 80.6094 23.3438 84.3281 23.3438Z" fill="#111827"/>
<path d="M89.0469 28.4688H93.6094V20.1406H93.7031C94.6094 22.125 96.5 23.3438 98.8906 23.3438C103.078 23.3438 105.672 20.0625 105.672 14.625V14.6094C105.672 9.15625 103.078 5.90625 98.8281 5.90625C96.4531 5.90625 94.625 7.14062 93.7188 9.17188H93.6094V6.25H89.0469V28.4688ZM97.3281 19.5625C95.1094 19.5625 93.5938 17.6562 93.5938 14.6406V14.625C93.5938 11.5938 95.1094 9.6875 97.3281 9.6875C99.5938 9.6875 101.031 11.5469 101.031 14.6094V14.625C101.031 17.6719 99.5938 19.5625 97.3281 19.5625ZM113.031 23.2656C115.234 23.2656 117.016 22.2188 117.969 20.5H118.062V23H122.625V11.5156C122.625 8.14062 119.828 5.90625 115.5 5.90625C111.078 5.90625 108.422 8.125 108.172 11.2188L108.156 11.4062H112.328L112.359 11.2656C112.578 10.1875 113.609 9.39062 115.312 9.39062C117.094 9.39062 118.062 10.3125 118.062 11.7969V12.8281L113.922 13.0781C109.766 13.3438 107.406 15.125 107.406 18.1719V18.2031C107.406 21.1562 109.672 23.2656 113.031 23.2656ZM111.922 17.9688V17.9375C111.922 16.75 112.844 16 114.609 15.8906L118.062 15.6719V16.875C118.062 18.625 116.562 19.9375 114.516 19.9375C112.938 19.9375 111.922 19.2031 111.922 17.9688ZM128.109 28.5156C131.828 28.5156 134.078 27.25 135.391 23.2969L141.141 6.25H136.328L132.781 19.3438H132.656L129.125 6.25H124.109L130.031 23L129.828 23.5469C129.422 24.6875 128.672 25.0781 127.312 25.0781C126.641 25.0781 126.109 24.9844 125.781 24.9219V28.3125C126.312 28.4062 127.219 28.5156 128.109 28.5156ZM142.984 23.2656C144.391 23.2656 145.516 22.1406 145.516 20.7344C145.516 19.3125 144.391 18.2031 142.984 18.2031C141.562 18.2031 140.453 19.3125 140.453 20.7344C140.453 22.1406 141.562 23.2656 142.984 23.2656Z" fill="#0A6375"/>
</svg>
