<svg width="32" height="24" viewBox="0 0 32 24" fill="none" xmlns="http://www.w3.org/2000/svg">
<mask id="mask0_19_1770" style="mask-type:luminance" maskUnits="userSpaceOnUse" x="0" y="0" width="32" height="24">
<rect width="32" height="24" fill="white"/>
</mask>
<g mask="url(#mask0_19_1770)">
<path fill-rule="evenodd" clip-rule="evenodd" d="M0 0H32V24H0V0Z" fill="#F7FCFF"/>
<path fill-rule="evenodd" clip-rule="evenodd" d="M0 14.6667V16.6667H32V14.6667H0Z" fill="#E31D1C"/>
<path fill-rule="evenodd" clip-rule="evenodd" d="M0 18.3333V20.3333H32V18.3333H0Z" fill="#E31D1C"/>
<path fill-rule="evenodd" clip-rule="evenodd" d="M0 7.33331V9.33331H32V7.33331H0Z" fill="#E31D1C"/>
<path fill-rule="evenodd" clip-rule="evenodd" d="M0 22V24H32V22H0Z" fill="#E31D1C"/>
<path fill-rule="evenodd" clip-rule="evenodd" d="M0 11V13H32V11H0Z" fill="#E31D1C"/>
<path fill-rule="evenodd" clip-rule="evenodd" d="M0 0V2H32V0H0Z" fill="#E31D1C"/>
<path fill-rule="evenodd" clip-rule="evenodd" d="M0 3.66669V5.66669H32V3.66669H0Z" fill="#E31D1C"/>
<rect width="20" height="13" fill="#2E42A5"/>
<path fill-rule="evenodd" clip-rule="evenodd" d="M1.72204 2.93864L0.996163 3.44753L1.24123 2.54192L0.596512 1.96801H1.4386L1.72103 1.22894L2.0522 1.96801H2.77006L2.20602 2.54192L2.42438 3.44753L1.72204 2.93864ZM5.72204 2.93864L4.99616 3.44753L5.24123 2.54192L4.59651 1.96801H5.4386L5.72103 1.22894L6.0522 1.96801H6.77006L6.20602 2.54192L6.42438 3.44753L5.72204 2.93864ZM8.99616 3.44753L9.72204 2.93864L10.4244 3.44753L10.206 2.54192L10.7701 1.96801H10.0522L9.72103 1.22894L9.4386 1.96801H8.59651L9.24123 2.54192L8.99616 3.44753ZM13.722 2.93864L12.9962 3.44753L13.2412 2.54192L12.5965 1.96801H13.4386L13.721 1.22894L14.0522 1.96801H14.7701L14.206 2.54192L14.4244 3.44753L13.722 2.93864ZM0.996163 7.44753L1.72204 6.93864L2.42438 7.44753L2.20602 6.54192L2.77006 5.96801H2.0522L1.72103 5.22894L1.4386 5.96801H0.596512L1.24123 6.54192L0.996163 7.44753ZM5.72204 6.93864L4.99616 7.44753L5.24123 6.54192L4.59651 5.96801H5.4386L5.72103 5.22894L6.0522 5.96801H6.77006L6.20602 6.54192L6.42438 7.44753L5.72204 6.93864ZM8.99616 7.44753L9.72204 6.93864L10.4244 7.44753L10.206 6.54192L10.7701 5.96801H10.0522L9.72103 5.22894L9.4386 5.96801H8.59651L9.24123 6.54192L8.99616 7.44753ZM13.722 6.93864L12.9962 7.44753L13.2412 6.54192L12.5965 5.96801H13.4386L13.721 5.22894L14.0522 5.96801H14.7701L14.206 6.54192L14.4244 7.44753L13.722 6.93864ZM0.996163 11.4475L1.72204 10.9386L2.42438 11.4475L2.20602 10.5419L2.77006 9.96801H2.0522L1.72103 9.22894L1.4386 9.96801H0.596512L1.24123 10.5419L0.996163 11.4475ZM5.72204 10.9386L4.99616 11.4475L5.24123 10.5419L4.59651 9.96801H5.4386L5.72103 9.22894L6.0522 9.96801H6.77006L6.20602 10.5419L6.42438 11.4475L5.72204 10.9386ZM8.99616 11.4475L9.72204 10.9386L10.4244 11.4475L10.206 10.5419L10.7701 9.96801H10.0522L9.72103 9.22894L9.4386 9.96801H8.59651L9.24123 10.5419L8.99616 11.4475ZM13.722 10.9386L12.9962 11.4475L13.2412 10.5419L12.5965 9.96801H13.4386L13.721 9.22894L14.0522 9.96801H14.7701L14.206 10.5419L14.4244 11.4475L13.722 10.9386ZM16.9962 3.44753L17.722 2.93864L18.4244 3.44753L18.206 2.54192L18.7701 1.96801H18.0522L17.721 1.22894L17.4386 1.96801H16.5965L17.2412 2.54192L16.9962 3.44753ZM17.722 6.93864L16.9962 7.44753L17.2412 6.54192L16.5965 5.96801H17.4386L17.721 5.22894L18.0522 5.96801H18.7701L18.206 6.54192L18.4244 7.44753L17.722 6.93864ZM16.9962 11.4475L17.722 10.9386L18.4244 11.4475L18.206 10.5419L18.7701 9.96801H18.0522L17.721 9.22894L17.4386 9.96801H16.5965L17.2412 10.5419L16.9962 11.4475ZM3.72204 4.93864L2.99616 5.44753L3.24123 4.54192L2.59651 3.96801H3.4386L3.72103 3.22894L4.0522 3.96801H4.77006L4.20602 4.54192L4.42438 5.44753L3.72204 4.93864ZM6.99616 5.44753L7.72204 4.93864L8.42438 5.44753L8.20602 4.54192L8.77006 3.96801H8.0522L7.72103 3.22894L7.4386 3.96801H6.59651L7.24123 4.54192L6.99616 5.44753ZM11.722 4.93864L10.9962 5.44753L11.2412 4.54192L10.5965 3.96801H11.4386L11.721 3.22894L12.0522 3.96801H12.7701L12.206 4.54192L12.4244 5.44753L11.722 4.93864ZM2.99616 9.44753L3.72204 8.93864L4.42438 9.44753L4.20602 8.54192L4.77006 7.96801H4.0522L3.72103 7.22894L3.4386 7.96801H2.59651L3.24123 8.54192L2.99616 9.44753ZM7.72204 8.93864L6.99616 9.44753L7.24123 8.54192L6.59651 7.96801H7.4386L7.72103 7.22894L8.0522 7.96801H8.77006L8.20602 8.54192L8.42438 9.44753L7.72204 8.93864ZM10.9962 9.44753L11.722 8.93864L12.4244 9.44753L12.206 8.54192L12.7701 7.96801H12.0522L11.721 7.22894L11.4386 7.96801H10.5965L11.2412 8.54192L10.9962 9.44753ZM15.722 4.93864L14.9962 5.44753L15.2412 4.54192L14.5965 3.96801H15.4386L15.721 3.22894L16.0522 3.96801H16.7701L16.206 4.54192L16.4244 5.44753L15.722 4.93864ZM14.9962 9.44753L15.722 8.93864L16.4244 9.44753L16.206 8.54192L16.7701 7.96801H16.0522L15.721 7.22894L15.4386 7.96801H14.5965L15.2412 8.54192L14.9962 9.44753Z" fill="#F7FCFF"/>
</g>
</svg>
